# xmcd CD database file
#
# Track frame offsets:
#	150
#	13675
#	33475
#	46750
#	63550
#	73000
#	93550
#	109825
#	124450
#
# Disc length: 1852 seconds
#
# Revision: 0
# Processed by: cddbd v1.5PL3 Copyright (c) Steve Scherf et al.
# Submitted via: CDex 1.51
#
DISCID=7e073a09
DTITLE=Herbie Mann - On The Prowl
DYEAR=1987
DGENRE=Jazz
TTITLE0=African Flute
TTITLE1=Afro Jazziac
TTITLE2=Ring a Levio
TTITLE3=Carabunta
TTITLE4=Calypso John
TTITLE5=Bacao
TTITLE6=Answer Me
TTITLE7=Love Chant
TTITLE8=To Birdland And Hurry
EXTD=YEAR: 1987
EXTT0=
EXTT1=
EXTT2=
EXTT3=
EXTT4=
EXTT5=
EXTT6=
EXTT7=
EXTT8=
PLAYORDER=
